<?xml version="1.0" encoding="UTF-8"?>
<svg id="_레이어_2" data-name="레이어 2" xmlns="http://www.w3.org/2000/svg" viewBox="0 0 312.21 107.63">
  <defs>
    <style>
      .cls-1 {
        fill: #3b98d4;
      }

      .cls-1, .cls-2, .cls-3, .cls-4, .cls-5, .cls-6, .cls-7 {
        stroke-width: 0px;
      }

      .cls-2 {
        fill: #e6203d;
      }

      .cls-3 {
        fill: #fff;
      }

      .cls-4 {
        fill: #143b63;
      }

      .cls-5 {
        fill: #14a9e1;
      }

      .cls-6 {
        fill: #005284;
      }

      .cls-7 {
        fill: #595a5b;
      }
    </style>
  </defs>
  <g id="Layer_1" data-name="Layer 1">
    <g>
      <g>
        <path class="cls-3" d="m91.67,62.22c0-25.08-20.52-45.41-45.84-45.41S0,37.14,0,62.22s20.52,45.41,45.84,45.41,45.84-20.34,45.84-45.41Z"/>
        <g>
          <path class="cls-4" d="m67.56,58.94c-7.35-5-16.76-2.95-21.7,4.56-4.13,6.27-10.36,7.05-12.77,7.05-7.86,0-13.25-5.53-14.83-11.26h0s-.03-.08-.04-.15c-.02-.06-.04-.12-.06-.2-.63-2.38-.78-3.52-.78-6.06,0-13.69,14.03-28.92,34.26-28.92s32.55,15.76,35.6,24.52c-.04-.16-.11-.31-.15-.47-5.87-17.13-22.13-29.45-41.26-29.45C21.77,18.57,2.23,38.08,2.23,62.16c0,21.53,15.53,39.96,37.06,39.96,17.17,0,28.72-9.64,34.01-22.9,2.92-7.26.85-15.79-5.75-20.27Z"/>
          <path class="cls-2" d="m87.52,49.34c-2.54-8.54-14.48-25.37-35.87-25.37-20.23,0-34.26,15.22-34.26,28.92,0,2.54.15,3.68.78,6.06-.26-1.04-.39-2.09-.39-3.11,0-14.25,14.26-24.12,28.93-24.12,19.86,0,35.95,16.1,35.95,35.94,0,15.57-8.95,29.04-21.97,35.52h0c16.77-6.07,28.76-22.14,28.76-41.02,0-4.46-.61-8.4-1.92-12.82Z"/>
        </g>
      </g>
      <g>
        <path class="cls-7" d="m200.31,53.62v-2.76c.38-.16.73-.39,1.05-.7.67-.65,1-1.41,1-2.3s-.33-1.68-1-2.33c-.32-.31-.67-.56-1.05-.73v-2.69c.39.08.78.19,1.14.34.76.31,1.42.74,1.99,1.27.56.54.99,1.16,1.32,1.88.33.72.5,1.47.5,2.29s-.17,1.55-.5,2.27c-.33.7-.76,1.32-1.32,1.85-.57.53-1.23.96-1.99,1.27-.36.15-.75.27-1.14.35h0Zm0-13.79v-.32l.17.17-.17.15h0Zm0-2.89h4.02v5.46h2.98v-13.41h-2.98v5.4h-4.02v2.56Zm0-2.56v2.56h-.17v-2.56h.17Zm0,5.12l-5.82-5.94h5.78v-2.52h-5.36v-2.33h-3.16v2.33h-5.61v2.52h6.05l-6.01,6.49,2.04,1.9,5.09-5.81,5.17,5.37,1.82-1.69v-.32h0Zm0,2.61v2.69c-.4-.17-.84-.26-1.29-.26-.89,0-1.67.33-2.33.98-.66.65-.96,1.42-.96,2.33s.3,1.66.96,2.3c.66.65,1.44.96,2.33.96.46,0,.89-.08,1.29-.26v2.76c-.41.08-.84.12-1.25.12-.84,0-1.66-.15-2.43-.47-.79-.31-1.45-.74-2.02-1.27-.56-.53-1-1.14-1.32-1.85-.33-.72-.5-1.47-.5-2.27s.17-1.57.5-2.29c.33-.72.77-1.34,1.32-1.88.57-.53,1.23-.95,2.02-1.27.76-.31,1.58-.47,2.43-.47.42,0,.85.04,1.25.13h0Zm-56.8,8.51v-7.97c.81,0,1.51-.3,2.09-.86.59-.57.85-1.25.85-2.03s-.27-1.48-.85-2.03c-.57-.57-1.28-.86-2.09-.86v-2.51c.78,0,1.56.14,2.27.41.71.27,1.33.65,1.87,1.15.54.5.95,1.07,1.25,1.74.31.66.45,1.36.45,2.1s-.14,1.43-.45,2.1c-.3.66-.71,1.23-1.25,1.73-.73.68-1.62,1.14-2.68,1.4v3.02h6.28v2.62h-7.74Zm0-16.68v-5.12h1.58v2.56h5.64v2.56h-7.22Zm12.57,19.03h-2.98v-23.99h2.98v10.08h3.08v2.81h-3.08v11.1h0Zm4.86-19.88v-2.62h11.74v2.62h-4.85l5.36,16.04-2.54.78-3.75-11.51-3.78,11.7-2.63-.81,5.43-16.21h-4.98Zm18.88-4.11h2.88v23.99h-2.88v-11.26h-2.74v11.12h-2.78v-23.82h2.78v9.94h2.74v-9.97Zm-51.53,2.89h-6.31v-2.57h9.25v9.21h-9.25v-2.55h6.31v-4.08h0Zm15.22-3.06v5.12h-7.32v-2.56h5.68v-2.56h1.64Zm0,5.54v2.51h-.03c-.81,0-1.52.28-2.08.86-.58.56-.85,1.24-.85,2.03s.27,1.46.85,2.03c.56.56,1.26.86,2.08.86h.03v7.97h-7.82v-2.62h6.31v-3.02c-1.08-.28-1.97-.74-2.67-1.4-.52-.49-.94-1.07-1.25-1.73-.3-.67-.45-1.36-.45-2.1s.15-1.44.45-2.1c.31-.67.73-1.24,1.25-1.74.52-.5,1.15-.88,1.88-1.15.71-.28,1.47-.41,2.26-.41h.03Zm-21.53,18.2v-2.62h9.56v2.62h-9.56Zm0-5.25v-6.34h11.02v2.62h-9.42v3.72h-1.6Zm0-15.43h-6.3v4.08h6.3v2.55h-9.25v-9.21h9.25v2.57h0Zm0,9.09v6.34h-1.41v-3.72h-9.6v-2.62h11.01Zm0,8.98h-6.25v-4.43h-3v7.05h9.25v-2.62Z"/>
        <path class="cls-7" d="m297.2,95.83v-12.01h15v3.6h-12.99v8.41h-2.01Zm0-16.41v-3.56h8.6v-4.5h-8.6v-3.52h8.6v-4.13h4v15.72h-12.6Zm0-11.59v3.52h-8.59v4.5h8.59v3.56h-12.61v-15.72h4.02v4.13h8.59Zm0,15.98v12.01h-2.06v-8.41h-12.96v-3.6h15.02Zm-34.21,11.45v-3.56h13.01v3.56h-13.01Zm0-11.11v-10.44h8.6v-3.45h-8.6v-3.49h8.6v-3.49h4v13.96h-10.58v3.34h12.98v3.56h-15Zm0-17.38v3.49h-8.59v3.45h8.59v10.44h-15.01v-3.56h12.95v-3.34h-10.56v-13.96h4.03v3.49h8.59Zm0,24.92v3.56h-12.62v-9.01h4.11v5.45h8.51Zm-30.48-4.66v-3.59h9.9v12.07h-4.05v-8.48h-5.85Zm0-7.47v-.53l.25.35-.25.18h0Zm0-5.44h5.85v7.36h4.05v-18.35h-4.05v7.51h-5.85v3.49Zm0-3.49v3.49h-.24v-3.49h.24Zm0,8.4l-8.11-11.48h8.03v-3.49h-18.76v3.49h8.29l-8.33,12.01,3.13,2.26,6.49-9.65,6.52,9.38,2.76-1.99v-.53h0Zm0,4.41v3.59h-16.21v-3.59h16.21Zm-37.93,4.42v-3.6h15v3.6h-6.63v7.95h-4.04v-7.95h-4.33Zm0-6.65v-3.56c.77,0,1.52-.15,2.21-.45.7-.3,1.3-.71,1.84-1.24.5-.53.9-1.14,1.22-1.82.3-.69.46-1.42.46-2.19s-.16-1.51-.46-2.2c-.32-.68-.73-1.29-1.22-1.82-.54-.52-1.14-.93-1.84-1.24-.7-.29-1.44-.44-2.21-.44v-3.57c1.34,0,2.61.24,3.79.73,1.16.49,2.2,1.16,3.1,2.01.88.85,1.57,1.84,2.1,2.95.51,1.11.75,2.3.75,3.58s-.24,2.46-.75,3.58c-.52,1.11-1.21,2.1-2.1,2.96-.9.84-1.94,1.51-3.1,2-1.19.49-2.45.74-3.79.74Zm0-18.55v3.57c-.78,0-1.53.15-2.22.44-.72.31-1.31.73-1.83,1.24-.51.53-.91,1.14-1.22,1.82-.32.69-.48,1.42-.48,2.2s.16,1.5.48,2.19c.32.68.71,1.29,1.22,1.82.51.53,1.11.94,1.83,1.24.69.3,1.43.45,2.22.45v3.56c-1.36,0-2.62-.24-3.79-.74-1.17-.49-2.22-1.16-3.11-2-.87-.85-1.58-1.84-2.08-2.96-.52-1.12-.78-2.3-.78-3.58s.26-2.47.78-3.58c.5-1.11,1.2-2.1,2.08-2.95.9-.85,1.94-1.52,3.11-2.01,1.17-.49,2.44-.73,3.79-.73h0Zm0,21.59v3.6h-4.36v7.95h-4.03v-7.95h-6.63v-3.6h15.03Zm-34.2,13.02v-3.45c1.11,0,2.08-.41,2.93-1.21.85-.82,1.26-1.8,1.26-2.92s-.41-2.09-1.26-2.9c-.85-.82-1.82-1.23-2.93-1.23v-3.45c1.11,0,2.17.2,3.17.6,1,.4,1.88.94,2.61,1.61.75.7,1.35,1.52,1.76,2.43.46.91.66,1.89.66,2.94s-.2,2.03-.66,2.96c-.41.91-1.01,1.71-1.76,2.41-.73.68-1.61,1.22-2.61,1.61-1,.41-2.06.6-3.17.6h0Zm0-16.66v-3.53h14.99v3.53h-14.99Zm0-6.17v-3.48h12.98v3.48h-12.98Zm-25.73-.82v-6.31h-8.54v-3.52h12.58v9.83h-4.05Zm25.73-2.66v3.48h-12.63v-11.47h4.06v7.99h8.56Zm0,6.11v3.53h-15.02v-3.53h15.02Zm0,5.03v3.45c-1.14,0-2.12.41-2.96,1.23-.83.81-1.26,1.78-1.26,2.9s.43,2.1,1.26,2.92c.84.81,1.81,1.21,2.96,1.21v3.45c-1.14,0-2.21-.2-3.2-.6-1-.39-1.86-.93-2.58-1.61-.75-.7-1.37-1.5-1.8-2.41-.43-.93-.65-1.9-.65-2.96s.23-2.03.65-2.94c.43-.91,1.04-1.72,1.8-2.43.72-.67,1.58-1.21,2.58-1.61.99-.4,2.06-.6,3.2-.6h0Zm-34.27,15.16v-3.52h.05c1.19,0,2.22-.44,3.07-1.3.85-.86,1.28-1.9,1.28-3.1s-.43-2.22-1.28-3.07c-.85-.86-1.88-1.28-3.07-1.28h-.05v-9.24h15.06v3.53h-13v2.4c1.43.4,2.73,1.1,3.91,2.1.75.72,1.35,1.56,1.81,2.49.45.94.67,1.97.67,3.06s-.22,2.1-.67,3.06c-.46.96-1.06,1.8-1.81,2.5-.8.72-1.7,1.3-2.7,1.72-1.01.43-2.08.64-3.22.64h-.05Zm0-29.96h-12.64v-3.52h12.64v3.52h0Zm0,8.45v9.24c-1.21,0-2.24.43-3.08,1.28-.87.84-1.3,1.86-1.3,3.07s.43,2.24,1.3,3.1c.84.86,1.87,1.29,3.08,1.3v3.52c-1.16,0-2.24-.21-3.24-.64-1.02-.42-1.91-1-2.68-1.72-.78-.7-1.4-1.54-1.84-2.5-.45-.96-.68-1.99-.68-3.06s.23-2.12.68-3.06c.44-.93,1.06-1.77,1.84-2.49,1.12-1.01,2.43-1.7,3.9-2.1v-2.4h-12.95v-3.53h14.96Z"/>
      </g>
      <path class="cls-5" d="m207.01,20.08c0,2.13-1.76,3.87-3.91,3.87h-89.78c-2.16,0-3.92-1.74-3.92-3.87V3.87c0-2.13,1.75-3.87,3.92-3.87h89.78c2.16,0,3.91,1.74,3.91,3.87v16.21Z"/>
      <path class="cls-1" d="m207.01,20.08c0,2.13-1.76,3.87-3.91,3.87h-89.78c-2.16,0-3.92-1.74-3.92-3.87V3.87c0-2.13,1.75-3.87,3.92-3.87h89.78c2.16,0,3.91,1.74,3.91,3.87v16.21Z"/>
      <g>
        <g>
          <path class="cls-3" d="m127.5,18.61c-.07,0-.12-.06-.12-.12v-3.33h-9.11c-.07,0-.12-.06-.12-.12v-1.47c0-.07.06-.12.12-.12h10.89c.07,0,.12.06.12.12v4.93c0,.07-.06.12-.12.12h-1.65Zm-9.23-5.5s-.05,0-.07-.02l-1.21-.84c-.06-.04-.07-.12-.03-.17l2.84-4.13h-2.66c-.07,0-.12-.06-.12-.12v-1.39c0-.07.06-.12.12-.12h2.42v-1.18c0-.07.06-.12.12-.12h1.76c.07,0,.12.06.12.12v1.18h2.34c.07,0,.12.06.12.12v1.39c0,.07-.06.12-.12.12h-2.61l2.86,4.05s.03.06.02.09c0,.03-.02.06-.05.08l-1.18.82s-.05.02-.07.02c-.04,0-.08-.02-.1-.05l-2.23-3.19-2.17,3.29s-.05.05-.08.05c0,0-.02,0-.02,0Zm9.29-.11c-.07,0-.12-.06-.12-.12v-2.93h-1.08v2.85c0,.07-.06.12-.12.12h-1.56c-.07,0-.12-.06-.12-.12v-7.51c0-.07.06-.12.12-.12h1.56c.07,0,.12.06.12.12v2.88h1.08v-2.89c0-.07.06-.12.12-.12h1.59c.07,0,.12.06.12.12v7.6c0,.07-.06.12-.12.12h-1.59Z"/>
          <path class="cls-6" d="m121.44,5.12v1.3h2.46v1.39h-2.85l3,4.24-1.18.82-2.34-3.34-2.27,3.45-1.21-.84,2.97-4.32h-2.9v-1.39h2.55v-1.3h1.76m7.72.15v7.6h-1.59v-3.05h-1.33v2.97h-1.56v-7.51h1.56v3h1.33v-3.02h1.59m0,8.29v4.93h-1.65v-3.45h-9.23v-1.47h10.89m-7.72-8.69h-1.76c-.14,0-.25.11-.25.25v1.05h-2.3c-.14,0-.25.11-.25.25v1.39c0,.14.11.25.25.25h2.42l-2.7,3.93c-.08.11-.05.27.06.35l1.21.84s.09.04.14.04c.02,0,.03,0,.05,0,.07-.01.12-.05.16-.11l2.06-3.14,2.13,3.04c.05.07.13.11.21.11.05,0,.1-.01.14-.04l1.18-.82c.05-.04.09-.1.1-.16.01-.07,0-.13-.04-.19l-2.72-3.85h2.37c.14,0,.25-.11.25-.25v-1.39c0-.14-.11-.25-.25-.25h-2.21v-1.05c0-.14-.11-.25-.25-.25h0Zm7.72.15h-1.59c-.14,0-.25.11-.25.25v2.77h-.83v-2.75c0-.14-.11-.25-.25-.25h-1.56c-.14,0-.25.11-.25.25v7.51c0,.14.11.25.25.25h1.56c.14,0,.25-.11.25-.25v-2.72h.83v2.8c0,.14.11.25.25.25h1.59c.14,0,.25-.11.25-.25v-7.6c0-.14-.11-.25-.25-.25h0Zm0,8.29h-10.89c-.14,0-.25.11-.25.25v1.47c0,.14.11.25.25.25h8.98v3.2c0,.14.11.25.25.25h1.65c.14,0,.25-.11.25-.25v-4.93c0-.14-.11-.25-.25-.25h0Z"/>
        </g>
        <g>
          <path class="cls-3" d="m132.53,18.48c-.07,0-.12-.06-.12-.12v-5.33c0-.07.06-.12.12-.12h10.44c.07,0,.12.06.12.12v5.33c0,.07-.06.12-.12.12h-10.44Zm8.68-1.68v-2.25h-6.92v2.25h6.92Zm.11-4.34c-.07,0-.12-.06-.12-.12v-7.06c0-.07.06-.12.12-.12h1.65c.07,0,.12.06.12.12v7.06c0,.07-.06.12-.12.12h-1.65Zm-6.11-.19c-.51,0-.99-.09-1.44-.27-.44-.19-.83-.44-1.17-.76-.33-.32-.6-.69-.8-1.11-.2-.43-.29-.87-.29-1.37s.1-.95.29-1.38c.2-.43.47-.8.8-1.12.33-.31.71-.56,1.16-.75.44-.19.93-.28,1.44-.28s.98.09,1.43.28c.46.19.84.43,1.17.75.33.32.6.69.8,1.12.2.43.3.89.3,1.38s-.1.94-.3,1.37c-.2.42-.46.79-.8,1.11-.33.32-.72.57-1.17.76-.45.18-.93.27-1.43.27Zm0-5.36c-.5,0-.94.18-1.3.55-.37.37-.55.79-.55,1.3s.18.94.54,1.29c.36.36.79.54,1.3.54s.93-.17,1.3-.54c.36-.35.54-.77.54-1.29s-.18-.94-.54-1.3c-.37-.37-.79-.55-1.3-.55Z"/>
          <path class="cls-6" d="m142.96,5.28v7.06h-1.65v-7.06h1.65m-7.76.09c.49,0,.95.09,1.38.27.44.18.81.42,1.13.73.32.31.58.67.77,1.08.19.41.29.85.29,1.32s-.09.91-.29,1.32c-.19.41-.45.76-.77,1.07-.32.31-.69.55-1.13.73-.43.17-.89.26-1.38.26s-.96-.09-1.39-.26c-.43-.18-.81-.42-1.13-.73-.33-.31-.58-.66-.77-1.07-.19-.41-.28-.85-.28-1.32s.09-.91.28-1.32c.19-.41.45-.77.77-1.08.32-.31.7-.55,1.13-.73.43-.18.9-.27,1.39-.27m.01,5.36c.55,0,1-.19,1.39-.57.39-.38.57-.84.57-1.38s-.19-1-.57-1.39c-.39-.39-.84-.58-1.39-.58s-1,.2-1.39.58c-.39.39-.58.85-.58,1.39s.19,1.01.58,1.38c.39.39.85.57,1.39.57m7.75,2.3v5.33h-10.44v-5.33h10.44m-8.8,3.9h7.17v-2.5h-7.17v2.5m8.8-11.9h-1.65c-.14,0-.25.11-.25.25v7.06c0,.14.11.25.25.25h1.65c.14,0,.25-.11.25-.25v-7.06c0-.14-.11-.25-.25-.25h0Zm-7.76.09c-.53,0-1.03.1-1.49.29-.46.19-.87.46-1.2.78-.35.33-.62.72-.83,1.16-.2.44-.3.91-.3,1.43s.1.98.3,1.42c.2.43.48.82.83,1.15.34.33.75.59,1.2.78.47.19.97.28,1.49.28s1.01-.1,1.47-.28c.47-.19.86-.45,1.21-.78.34-.33.62-.71.82-1.14.21-.45.31-.92.31-1.43s-.1-.99-.31-1.43c-.2-.44-.48-.83-.83-1.16-.34-.33-.73-.58-1.21-.78-.46-.19-.96-.29-1.48-.29h0Zm.01,5.36c-.48,0-.88-.16-1.21-.5-.34-.33-.51-.72-.51-1.21s.17-.87.51-1.22c.34-.34.75-.51,1.21-.51s.86.16,1.21.51c.34.34.5.74.5,1.22s-.16.88-.5,1.2c-.35.34-.73.5-1.21.5h0Zm7.75,2.3h-10.44c-.14,0-.25.11-.25.25v5.33c0,.14.11.25.25.25h10.44c.14,0,.25-.11.25-.25v-5.33c0-.14-.11-.25-.25-.25h0Zm-8.55,1.91h6.67v2h-6.67v-2h0Z"/>
        </g>
        <g>
          <path class="cls-3" d="m146.22,18.51c-.07,0-.12-.06-.12-.12v-3.64c0-.07.06-.12.12-.12h1.67c.07,0,.12.06.12.12v2.06h8.67c.07,0,.12.06.12.12v1.46c0,.07-.06.12-.12.12h-10.46Zm4.38-2.77c-.07,0-.12-.06-.12-.12v-1.82h-5.22c-.07,0-.12-.06-.12-.12v-1.46c0-.07.06-.12.12-.12h12.24c.07,0,.12.06.12.12v1.46c0,.07-.06.12-.12.12h-5.1v1.82c0,.07-.06.12-.12.12h-1.67Zm.78-3.94c-.52,0-1.01-.1-1.45-.29-.44-.18-.84-.43-1.18-.74-.34-.32-.61-.7-.81-1.12-.2-.42-.29-.88-.29-1.36s.1-.94.29-1.36c.2-.42.47-.8.81-1.12.33-.3.73-.56,1.18-.75.45-.19.94-.28,1.45-.28s1,.1,1.44.28c.47.2.87.45,1.19.75.33.33.6.7.8,1.12.2.42.3.87.3,1.36s-.1.95-.3,1.36c-.2.42-.47.8-.8,1.12-.33.31-.73.56-1.19.75-.44.19-.93.28-1.44.28Zm0-5.33c-.51,0-.93.18-1.3.54-.37.35-.54.77-.54,1.29s.18.94.54,1.29c.37.36.79.53,1.3.53s.94-.18,1.29-.53c.37-.35.55-.78.55-1.29s-.18-.94-.55-1.29c-.35-.36-.79-.54-1.29-.54Z"/>
          <path class="cls-6" d="m151.38,4.91c.48,0,.96.09,1.39.27.43.18.83.42,1.15.73.32.31.58.67.78,1.09.2.41.29.85.29,1.31s-.09.9-.29,1.31-.46.77-.78,1.08c-.32.3-.71.55-1.15.72-.43.18-.91.28-1.39.28s-.97-.09-1.4-.28c-.44-.18-.82-.42-1.15-.72-.32-.31-.59-.67-.78-1.08-.19-.41-.28-.85-.28-1.31s.09-.9.28-1.31c.2-.41.46-.77.78-1.09.33-.3.71-.54,1.15-.73.43-.18.91-.27,1.4-.27m0,5.33c.54,0,1-.19,1.38-.57.39-.38.59-.84.59-1.38s-.19-1-.59-1.38c-.38-.38-.84-.57-1.38-.57s-1,.19-1.39.57c-.39.38-.58.84-.58,1.38s.19,1,.58,1.38c.39.38.84.57,1.39.57m6.11,1.98v1.46h-5.22v1.94h-1.67v-1.94h-5.34v-1.46h12.24m-9.6,2.53v2.19h8.79v1.46h-10.46v-3.64h1.67m3.49-10.09c-.53,0-1.03.1-1.5.29-.47.2-.88.46-1.22.77-.35.34-.63.73-.84,1.16-.2.44-.31.91-.31,1.42s.1.98.31,1.41c.21.44.49.83.84,1.16.36.33.77.59,1.23.77.46.19.96.29,1.49.29s1.03-.1,1.49-.3c.47-.19.88-.45,1.22-.77.34-.33.62-.72.83-1.15.21-.43.32-.91.32-1.42s-.1-.98-.32-1.42c-.21-.43-.49-.82-.83-1.16-.33-.31-.74-.57-1.23-.78-.46-.19-.97-.29-1.49-.29h0Zm0,5.33c-.48,0-.87-.16-1.21-.5-.34-.32-.5-.72-.5-1.2s.16-.87.5-1.2c.35-.34.73-.5,1.22-.5s.87.16,1.2.5c.35.33.51.72.51,1.2s-.17.87-.51,1.2c-.33.33-.74.5-1.2.5h0Zm6.11,1.98h-12.24c-.14,0-.25.11-.25.25v1.46c0,.14.11.25.25.25h5.09v1.69c0,.14.11.25.25.25h1.67c.14,0,.25-.11.25-.25v-1.69h4.97c.14,0,.25-.11.25-.25v-1.46c0-.14-.11-.25-.25-.25h0Zm-9.6,2.53h-1.67c-.14,0-.25.11-.25.25v3.64c0,.14.11.25.25.25h10.46c.14,0,.25-.11.25-.25v-1.46c0-.14-.11-.25-.25-.25h-8.54v-1.94c0-.14-.11-.25-.25-.25h0Z"/>
        </g>
        <g>
          <path class="cls-3" d="m165.68,19.17c-.52,0-.99-.09-1.43-.27-.44-.18-.83-.44-1.17-.75-.32-.3-.58-.65-.79-1.09-.2-.41-.3-.85-.3-1.35s.1-.93.29-1.35c.21-.44.47-.8.79-1.1.34-.32.73-.57,1.17-.75.45-.19.92-.27,1.42-.27s.97.09,1.42.27c.42.18.8.43,1.16.75.32.29.58.65.79,1.1.19.41.29.85.29,1.35s-.09.95-.29,1.35c-.21.44-.47.79-.79,1.09-.35.33-.73.57-1.16.75-.44.19-.91.28-1.42.28Zm-.02-5.27c-.49,0-.9.17-1.26.52-.35.36-.52.77-.52,1.26s.17.9.52,1.25c.36.35.77.53,1.26.53s.93-.18,1.28-.53c.35-.36.52-.77.52-1.25s-.18-.9-.52-1.26c-.34-.35-.78-.52-1.28-.52Zm2.66-1.43c-.07,0-.12-.06-.12-.12v-1.32h-2.06c-.07,0-.12-.06-.12-.12v-1.36c0-.07.06-.12.12-.12h2.06v-1.31h-2.06c-.07,0-.12-.06-.12-.12v-1.37c0-.07.06-.12.12-.12h2.06v-1.22c0-.07.06-.12.12-.12h1.64c.07,0,.12.06.12.12v7.08c0,.07-.06.12-.12.12h-1.64Zm-6.16-.19c-.51,0-.98-.09-1.44-.27-.46-.2-.86-.46-1.17-.76-.33-.31-.6-.69-.8-1.12-.2-.41-.3-.86-.3-1.38s.1-.97.3-1.38c.21-.43.47-.8.8-1.12.31-.3.7-.55,1.17-.75.46-.19.93-.28,1.45-.28s.98.09,1.43.28c.44.18.83.43,1.19.75.34.33.62.7.81,1.12.2.44.3.9.3,1.38s-.1.94-.3,1.38c-.19.42-.46.79-.81,1.12-.36.33-.75.58-1.19.76-.45.18-.93.27-1.43.27Zm0-5.38c-.52,0-.96.18-1.31.54-.37.37-.54.81-.54,1.33s.18.95.54,1.3c.35.36.79.54,1.32.54s.95-.18,1.33-.54c.35-.36.53-.8.53-1.3s-.18-.95-.54-1.33c-.38-.36-.81-.54-1.32-.54Z"/>
          <path class="cls-6" d="m169.96,5.28v7.08h-1.64v-1.44h-2.19v-1.36h2.19v-1.56h-2.19v-1.37h2.19v-1.35h1.64m-7.81.09c.49,0,.95.09,1.38.27.44.18.81.42,1.15.73.32.31.59.67.78,1.08.19.41.29.85.29,1.32s-.1.91-.29,1.32c-.19.41-.46.77-.78,1.08-.34.31-.71.55-1.15.73-.43.17-.89.27-1.38.27s-.96-.09-1.4-.27c-.42-.18-.81-.42-1.13-.73-.32-.31-.58-.67-.78-1.08-.2-.41-.29-.85-.29-1.32s.08-.91.29-1.32c.2-.41.46-.77.78-1.08.32-.31.72-.55,1.13-.73.44-.18.9-.27,1.4-.27m0,5.39c.55,0,1.01-.19,1.41-.58.37-.38.57-.85.57-1.39s-.2-1.02-.57-1.41c-.4-.39-.86-.58-1.41-.58s-1.03.2-1.4.58c-.39.39-.58.86-.58,1.41s.19,1.01.58,1.39c.37.39.86.58,1.4.58m3.52,1.59c.49,0,.94.09,1.37.27.42.18.79.42,1.12.73.32.3.57.65.76,1.06.2.41.28.84.28,1.3s-.08.89-.28,1.29c-.19.4-.44.75-.76,1.05-.33.31-.7.55-1.12.73-.43.18-.88.27-1.37.27s-.95-.08-1.38-.27c-.43-.18-.81-.42-1.13-.73-.32-.3-.56-.65-.76-1.05-.19-.4-.28-.83-.28-1.29s.09-.89.28-1.3c.19-.41.44-.76.76-1.06.33-.31.71-.55,1.13-.73.43-.17.88-.27,1.38-.27m-.02,5.24c.54,0,1-.19,1.37-.56.37-.38.56-.82.56-1.34s-.19-.97-.56-1.35c-.37-.38-.83-.56-1.37-.56s-.97.19-1.35.56c-.37.38-.56.83-.56,1.35s.18.96.56,1.34c.38.37.82.56,1.35.56m4.31-12.57h-1.64c-.14,0-.25.11-.25.25v1.1h-1.94c-.14,0-.25.11-.25.25v1.23c-.05-.17-.11-.34-.19-.51-.2-.43-.48-.82-.83-1.16-.37-.34-.77-.59-1.23-.78-.46-.19-.96-.29-1.48-.29s-1.02.09-1.49.29c-.48.21-.89.47-1.21.78-.34.32-.62.71-.83,1.15-.21.43-.31.89-.31,1.43s.1,1.01.31,1.44c.21.44.49.83.83,1.15.33.31.73.57,1.21.78.49.19.97.29,1.5.29s1.01-.1,1.47-.28c.45-.18.85-.44,1.22-.78.36-.34.64-.73.84-1.16.08-.17.14-.34.19-.51v1.23c0,.14.11.25.25.25h1.94v1.19c0,.14.11.25.25.25h1.64c.14,0,.25-.11.25-.25v-7.08c0-.14-.11-.25-.25-.25h0Zm-7.81,5.48c-.49,0-.9-.17-1.22-.5-.34-.34-.51-.74-.51-1.22s.17-.89.51-1.24c.33-.34.74-.51,1.23-.51s.88.17,1.24.51c.33.35.5.76.5,1.23s-.17.88-.5,1.22c-.35.34-.75.5-1.23.5h0Zm3.79-1.13c.04-.2.06-.4.06-.61s-.02-.4-.05-.6c.05.05.11.07.18.07h1.94v1.06h-1.94c-.07,0-.13.03-.18.08h0Zm-.27,2.73c-.52,0-1.01.09-1.47.28-.45.19-.86.45-1.21.78-.33.31-.6.68-.81,1.14-.21.44-.31.9-.31,1.4s.1.97.31,1.4c.21.45.48.81.81,1.12.35.33.76.59,1.21.78.45.19.94.28,1.47.28s1.01-.09,1.47-.28c.44-.19.83-.44,1.19-.78.33-.31.6-.67.82-1.13.2-.42.3-.88.3-1.4s-.1-.98-.3-1.41c-.22-.46-.48-.83-.82-1.14-.37-.34-.76-.59-1.19-.78-.47-.19-.95-.29-1.47-.29h0Zm-.02,5.24c-.45,0-.83-.16-1.17-.49-.32-.33-.48-.71-.48-1.16s.16-.84.49-1.18c.33-.33.71-.49,1.17-.49.48,0,.87.16,1.19.49.33.34.49.73.49,1.18s-.16.83-.49,1.17c-.33.33-.72.49-1.19.49h0Z"/>
        </g>
        <g>
          <path class="cls-3" d="m182.45,18.74c-.07,0-.12-.06-.12-.12V5.28c0-.07.06-.12.12-.12h1.66c.07,0,.12.06.12.12v13.34c0,.07-.06.12-.12.12h-1.66Zm-4.99-1.74c-.07,0-.12-.06-.12-.12V7.72h-4.99c-.07,0-.12-.06-.12-.12v-1.49c0-.07.06-.12.12-.12h6.77c.07,0,.12.06.12.12v10.77c0,.07-.06.12-.12.12h-1.65Z"/>
          <path class="cls-6" d="m184.11,5.28v13.34h-1.66V5.28h1.66m-5,.83v10.77h-1.65V7.59h-5.12v-1.49h6.77m5-1.08h-1.66c-.14,0-.25.11-.25.25v13.34c0,.14.11.25.25.25h1.66c.14,0,.25-.11.25-.25V5.28c0-.14-.11-.25-.25-.25h0Zm-5,.83h-6.77c-.14,0-.25.11-.25.25v1.49c0,.14.11.25.25.25h4.87v9.04c0,.14.11.25.25.25h1.65c.14,0,.25-.11.25-.25V6.1c0-.14-.11-.25-.25-.25h0Z"/>
        </g>
        <g>
          <path class="cls-3" d="m187.27,18.51c-.07,0-.12-.06-.12-.12v-4c0-.07.06-.12.12-.12h1.64c.07,0,.12.06.12.12v2.42h8.85c.07,0,.12.06.12.12v1.46c0,.07-.06.12-.12.12h-10.62Zm8.71-4.35c-.07,0-.12-.06-.12-.12V5.28c0-.07.06-.12.12-.12h1.66c.07,0,.12.06.12.12v3.46h1.59c.07,0,.12.06.12.12v1.52c0,.07-.06.12-.12.12h-1.59v3.54c0,.07-.06.12-.12.12h-1.66Zm-9.68-.77c-.07,0-.12-.06-.12-.12v-1.45c0-.07.06-.12.12-.12h2.59v-2.86c0-.07.06-.12.12-.12h1.64c.07,0,.12.06.12.12v2.86h4.18c.07,0,.12.06.12.12v1.45c0,.07-.06.12-.12.12h-8.66Zm6.29-2.72c-.07,0-.12-.06-.12-.12v-3.43h-5.56c-.07,0-.12-.06-.12-.12v-1.45c0-.07.06-.12.12-.12h7.33c.07,0,.12.06.12.12v5c0,.07-.06.12-.12.12h-1.65Z"/>
          <path class="cls-6" d="m197.65,5.28v3.59h1.71v1.52h-1.71v3.66h-1.66V5.28h1.66m-3.41.27v5h-1.65v-3.55h-5.68v-1.45h7.33m-3.58,3.28v2.99h4.31v1.45h-8.66v-1.45h2.71v-2.99h1.64m-1.75,5.56v2.54h8.98v1.46h-10.62v-4h1.64m8.74-9.36h-1.66c-.14,0-.25.11-.25.25v8.76c0,.14.11.25.25.25h1.66c.14,0,.25-.11.25-.25v-3.41h1.46c.14,0,.25-.11.25-.25v-1.52c0-.14-.11-.25-.25-.25h-1.46v-3.34c0-.14-.11-.25-.25-.25h0Zm-3.41.27h-7.33c-.14,0-.25.11-.25.25v1.45c0,.14.11.25.25.25h5.43v3.3c0,.14.11.25.25.25h1.65c.14,0,.25-.11.25-.25v-5c0-.14-.11-.25-.25-.25h0Zm-3.58,3.28h-1.64c-.14,0-.25.11-.25.25v2.74h-2.46c-.14,0-.25.11-.25.25v1.45c0,.14.11.25.25.25h8.66c.14,0,.25-.11.25-.25v-1.45c0-.14-.11-.25-.25-.25h-4.06v-2.74c0-.14-.11-.25-.25-.25h0Zm-1.75,5.56h-1.64c-.14,0-.25.11-.25.25v4c0,.14.11.25.25.25h10.62c.14,0,.25-.11.25-.25v-1.46c0-.14-.11-.25-.25-.25h-8.73v-2.29c0-.14-.11-.25-.25-.25h0Z"/>
        </g>
      </g>
    </g>
  </g>
</svg>